<mxfile host="Electron" modified="2023-11-16T17:24:31.070Z" agent="Mozilla/5.0 (Windows NT 10.0; Win64; x64) AppleWebKit/537.36 (KHTML, like Gecko) draw.io/22.0.2 Chrome/114.0.5735.289 Electron/25.8.4 Safari/537.36" etag="-J7Ukne_GE9rn8GLULgt" version="22.0.2" type="device">
  <diagram name="Page-1" id="H7JTBC3zUmKyQiJami1q">
    <mxGraphModel dx="2087" dy="1384" grid="0" gridSize="10" guides="1" tooltips="1" connect="1" arrows="1" fold="1" page="0" pageScale="1" pageWidth="827" pageHeight="1169" math="0" shadow="0">
      <root>
        <mxCell id="0" />
        <mxCell id="1" parent="0" />
        <mxCell id="o0m45_NpP9Wi5h4qAgVJ-2" value="MuseumRevenue" style="swimlane;fontStyle=0;childLayout=stackLayout;horizontal=1;startSize=30;horizontalStack=0;resizeParent=1;resizeParentMax=0;resizeLast=0;collapsible=1;marginBottom=0;whiteSpace=wrap;html=1;" parent="1" vertex="1">
          <mxGeometry x="99" y="149" width="140" height="90" as="geometry" />
        </mxCell>
        <mxCell id="o0m45_NpP9Wi5h4qAgVJ-3" value="revenue" style="text;strokeColor=none;fillColor=none;align=left;verticalAlign=middle;spacingLeft=4;spacingRight=4;overflow=hidden;points=[[0,0.5],[1,0.5]];portConstraint=eastwest;rotatable=0;whiteSpace=wrap;html=1;" parent="o0m45_NpP9Wi5h4qAgVJ-2" vertex="1">
          <mxGeometry y="30" width="140" height="30" as="geometry" />
        </mxCell>
        <mxCell id="o0m45_NpP9Wi5h4qAgVJ-4" value="ticketCount" style="text;strokeColor=none;fillColor=none;align=left;verticalAlign=middle;spacingLeft=4;spacingRight=4;overflow=hidden;points=[[0,0.5],[1,0.5]];portConstraint=eastwest;rotatable=0;whiteSpace=wrap;html=1;" parent="o0m45_NpP9Wi5h4qAgVJ-2" vertex="1">
          <mxGeometry y="60" width="140" height="30" as="geometry" />
        </mxCell>
        <mxCell id="o0m45_NpP9Wi5h4qAgVJ-8" value="" style="endArrow=none;html=1;rounded=0;startSize=14;endSize=14;sourcePerimeterSpacing=8;targetPerimeterSpacing=8;curved=1;exitX=1;exitY=0.5;exitDx=0;exitDy=0;entryX=0;entryY=0.5;entryDx=0;entryDy=0;" parent="1" source="o0m45_NpP9Wi5h4qAgVJ-3" target="o0m45_NpP9Wi5h4qAgVJ-7" edge="1">
          <mxGeometry width="50" height="50" relative="1" as="geometry">
            <mxPoint x="-38" y="9" as="sourcePoint" />
            <mxPoint x="8" y="9" as="targetPoint" />
          </mxGeometry>
        </mxCell>
        <mxCell id="o0m45_NpP9Wi5h4qAgVJ-13" value="" style="group" parent="1" vertex="1" connectable="0">
          <mxGeometry x="262" y="184" width="60" height="43" as="geometry" />
        </mxCell>
        <mxCell id="o0m45_NpP9Wi5h4qAgVJ-10" value="museum" style="text;strokeColor=none;fillColor=none;html=1;align=center;verticalAlign=middle;whiteSpace=wrap;rounded=0;container=0;" parent="o0m45_NpP9Wi5h4qAgVJ-13" vertex="1">
          <mxGeometry y="13" width="60" height="30" as="geometry" />
        </mxCell>
        <mxCell id="o0m45_NpP9Wi5h4qAgVJ-7" value="" style="ellipse;whiteSpace=wrap;html=1;aspect=fixed;container=0;" parent="o0m45_NpP9Wi5h4qAgVJ-13" vertex="1">
          <mxGeometry x="21" width="18" height="18" as="geometry" />
        </mxCell>
        <mxCell id="o0m45_NpP9Wi5h4qAgVJ-14" value="" style="group" parent="1" vertex="1" connectable="0">
          <mxGeometry x="312" y="94" width="60" height="43" as="geometry" />
        </mxCell>
        <mxCell id="o0m45_NpP9Wi5h4qAgVJ-15" value="museumName" style="text;strokeColor=none;fillColor=none;html=1;align=center;verticalAlign=middle;whiteSpace=wrap;rounded=0;container=0;" parent="o0m45_NpP9Wi5h4qAgVJ-14" vertex="1">
          <mxGeometry y="13" width="60" height="30" as="geometry" />
        </mxCell>
        <mxCell id="o0m45_NpP9Wi5h4qAgVJ-16" value="" style="ellipse;whiteSpace=wrap;html=1;aspect=fixed;container=0;" parent="o0m45_NpP9Wi5h4qAgVJ-14" vertex="1">
          <mxGeometry x="21" width="18" height="18" as="geometry" />
        </mxCell>
        <mxCell id="o0m45_NpP9Wi5h4qAgVJ-17" value="" style="group" parent="1" vertex="1" connectable="0">
          <mxGeometry x="343" y="185" width="60" height="43" as="geometry" />
        </mxCell>
        <mxCell id="o0m45_NpP9Wi5h4qAgVJ-18" value="museumCity" style="text;strokeColor=none;fillColor=none;html=1;align=center;verticalAlign=middle;whiteSpace=wrap;rounded=0;container=0;" parent="o0m45_NpP9Wi5h4qAgVJ-17" vertex="1">
          <mxGeometry y="13" width="60" height="30" as="geometry" />
        </mxCell>
        <mxCell id="o0m45_NpP9Wi5h4qAgVJ-19" value="" style="ellipse;whiteSpace=wrap;html=1;aspect=fixed;container=0;" parent="o0m45_NpP9Wi5h4qAgVJ-17" vertex="1">
          <mxGeometry x="21" width="18" height="18" as="geometry" />
        </mxCell>
        <mxCell id="o0m45_NpP9Wi5h4qAgVJ-20" value="" style="group" parent="1" vertex="1" connectable="0">
          <mxGeometry x="308" y="276" width="60" height="43" as="geometry" />
        </mxCell>
        <mxCell id="o0m45_NpP9Wi5h4qAgVJ-21" value="museumCategory" style="text;strokeColor=none;fillColor=none;html=1;align=center;verticalAlign=middle;whiteSpace=wrap;rounded=0;container=0;" parent="o0m45_NpP9Wi5h4qAgVJ-20" vertex="1">
          <mxGeometry y="13" width="60" height="30" as="geometry" />
        </mxCell>
        <mxCell id="o0m45_NpP9Wi5h4qAgVJ-22" value="" style="ellipse;whiteSpace=wrap;html=1;aspect=fixed;container=0;" parent="o0m45_NpP9Wi5h4qAgVJ-20" vertex="1">
          <mxGeometry x="21" width="18" height="18" as="geometry" />
        </mxCell>
        <mxCell id="o0m45_NpP9Wi5h4qAgVJ-23" value="" style="group" parent="1" vertex="1" connectable="0">
          <mxGeometry x="434" y="185" width="60" height="43" as="geometry" />
        </mxCell>
        <mxCell id="o0m45_NpP9Wi5h4qAgVJ-24" value="museumProvince" style="text;strokeColor=none;fillColor=none;html=1;align=center;verticalAlign=middle;whiteSpace=wrap;rounded=0;container=0;" parent="o0m45_NpP9Wi5h4qAgVJ-23" vertex="1">
          <mxGeometry y="13" width="60" height="30" as="geometry" />
        </mxCell>
        <mxCell id="o0m45_NpP9Wi5h4qAgVJ-25" value="" style="ellipse;whiteSpace=wrap;html=1;aspect=fixed;container=0;" parent="o0m45_NpP9Wi5h4qAgVJ-23" vertex="1">
          <mxGeometry x="21" width="18" height="18" as="geometry" />
        </mxCell>
        <mxCell id="o0m45_NpP9Wi5h4qAgVJ-26" value="" style="group" parent="1" vertex="1" connectable="0">
          <mxGeometry x="533" y="185" width="60" height="43" as="geometry" />
        </mxCell>
        <mxCell id="o0m45_NpP9Wi5h4qAgVJ-27" value="museumRegion" style="text;strokeColor=none;fillColor=none;html=1;align=center;verticalAlign=middle;whiteSpace=wrap;rounded=0;container=0;" parent="o0m45_NpP9Wi5h4qAgVJ-26" vertex="1">
          <mxGeometry y="13" width="60" height="30" as="geometry" />
        </mxCell>
        <mxCell id="o0m45_NpP9Wi5h4qAgVJ-28" value="" style="ellipse;whiteSpace=wrap;html=1;aspect=fixed;container=0;" parent="o0m45_NpP9Wi5h4qAgVJ-26" vertex="1">
          <mxGeometry x="21" width="18" height="18" as="geometry" />
        </mxCell>
        <mxCell id="o0m45_NpP9Wi5h4qAgVJ-29" value="" style="endArrow=none;html=1;rounded=0;startSize=14;endSize=14;sourcePerimeterSpacing=8;targetPerimeterSpacing=8;curved=1;exitX=-0.013;exitY=0.447;exitDx=0;exitDy=0;entryX=1;entryY=0.5;entryDx=0;entryDy=0;exitPerimeter=0;" parent="1" source="o0m45_NpP9Wi5h4qAgVJ-19" target="o0m45_NpP9Wi5h4qAgVJ-7" edge="1">
          <mxGeometry width="50" height="50" relative="1" as="geometry">
            <mxPoint x="175" y="225" as="sourcePoint" />
            <mxPoint x="294" y="192" as="targetPoint" />
          </mxGeometry>
        </mxCell>
        <mxCell id="o0m45_NpP9Wi5h4qAgVJ-30" value="" style="endArrow=none;html=1;rounded=0;startSize=14;endSize=14;sourcePerimeterSpacing=8;targetPerimeterSpacing=8;curved=1;exitX=1.013;exitY=0.453;exitDx=0;exitDy=0;exitPerimeter=0;entryX=0;entryY=0.5;entryDx=0;entryDy=0;" parent="1" source="o0m45_NpP9Wi5h4qAgVJ-19" target="o0m45_NpP9Wi5h4qAgVJ-25" edge="1">
          <mxGeometry width="50" height="50" relative="1" as="geometry">
            <mxPoint x="383" y="217" as="sourcePoint" />
            <mxPoint x="433" y="167" as="targetPoint" />
          </mxGeometry>
        </mxCell>
        <mxCell id="o0m45_NpP9Wi5h4qAgVJ-31" value="" style="endArrow=none;html=1;rounded=0;startSize=14;endSize=14;sourcePerimeterSpacing=8;targetPerimeterSpacing=8;curved=1;exitX=1;exitY=0.5;exitDx=0;exitDy=0;entryX=0;entryY=0.5;entryDx=0;entryDy=0;" parent="1" source="o0m45_NpP9Wi5h4qAgVJ-25" target="o0m45_NpP9Wi5h4qAgVJ-28" edge="1">
          <mxGeometry width="50" height="50" relative="1" as="geometry">
            <mxPoint x="497" y="248" as="sourcePoint" />
            <mxPoint x="547" y="198" as="targetPoint" />
          </mxGeometry>
        </mxCell>
        <mxCell id="o0m45_NpP9Wi5h4qAgVJ-32" value="" style="endArrow=none;html=1;rounded=0;startSize=14;endSize=14;sourcePerimeterSpacing=8;targetPerimeterSpacing=8;curved=1;exitX=0.751;exitY=0.968;exitDx=0;exitDy=0;exitPerimeter=0;entryX=0.288;entryY=0.046;entryDx=0;entryDy=0;entryPerimeter=0;" parent="1" source="o0m45_NpP9Wi5h4qAgVJ-7" target="o0m45_NpP9Wi5h4qAgVJ-22" edge="1">
          <mxGeometry width="50" height="50" relative="1" as="geometry">
            <mxPoint x="276" y="286" as="sourcePoint" />
            <mxPoint x="334" y="276" as="targetPoint" />
          </mxGeometry>
        </mxCell>
        <mxCell id="o0m45_NpP9Wi5h4qAgVJ-33" value="" style="endArrow=none;html=1;rounded=0;startSize=14;endSize=14;sourcePerimeterSpacing=8;targetPerimeterSpacing=8;curved=1;exitX=0.722;exitY=0.072;exitDx=0;exitDy=0;exitPerimeter=0;entryX=0.276;entryY=0.928;entryDx=0;entryDy=0;entryPerimeter=0;" parent="1" source="o0m45_NpP9Wi5h4qAgVJ-7" target="o0m45_NpP9Wi5h4qAgVJ-16" edge="1">
          <mxGeometry width="50" height="50" relative="1" as="geometry">
            <mxPoint x="268" y="179" as="sourcePoint" />
            <mxPoint x="318" y="129" as="targetPoint" />
          </mxGeometry>
        </mxCell>
        <mxCell id="o0m45_NpP9Wi5h4qAgVJ-34" value="" style="group" parent="1" vertex="1" connectable="0">
          <mxGeometry x="139" y="294" width="60" height="43" as="geometry" />
        </mxCell>
        <mxCell id="o0m45_NpP9Wi5h4qAgVJ-35" value="museumServices" style="text;strokeColor=none;fillColor=none;html=1;align=center;verticalAlign=middle;whiteSpace=wrap;rounded=0;container=0;" parent="o0m45_NpP9Wi5h4qAgVJ-34" vertex="1">
          <mxGeometry y="13" width="60" height="30" as="geometry" />
        </mxCell>
        <mxCell id="o0m45_NpP9Wi5h4qAgVJ-36" value="" style="ellipse;whiteSpace=wrap;html=1;aspect=fixed;container=0;" parent="o0m45_NpP9Wi5h4qAgVJ-34" vertex="1">
          <mxGeometry x="21" width="18" height="18" as="geometry" />
        </mxCell>
        <mxCell id="o0m45_NpP9Wi5h4qAgVJ-40" value="" style="endArrow=none;html=1;rounded=0;startSize=14;endSize=14;sourcePerimeterSpacing=8;targetPerimeterSpacing=8;curved=1;" parent="1" edge="1">
          <mxGeometry width="50" height="50" relative="1" as="geometry">
            <mxPoint x="71" y="367" as="sourcePoint" />
            <mxPoint x="165" y="311" as="targetPoint" />
          </mxGeometry>
        </mxCell>
        <mxCell id="o0m45_NpP9Wi5h4qAgVJ-42" value="" style="endArrow=none;html=1;rounded=0;startSize=14;endSize=14;sourcePerimeterSpacing=8;targetPerimeterSpacing=8;curved=1;entryX=0.524;entryY=1.004;entryDx=0;entryDy=0;entryPerimeter=0;exitX=0.5;exitY=0;exitDx=0;exitDy=0;" parent="1" source="o0m45_NpP9Wi5h4qAgVJ-36" target="o0m45_NpP9Wi5h4qAgVJ-4" edge="1">
          <mxGeometry width="50" height="50" relative="1" as="geometry">
            <mxPoint x="125" y="279" as="sourcePoint" />
            <mxPoint x="175" y="229" as="targetPoint" />
          </mxGeometry>
        </mxCell>
        <mxCell id="o0m45_NpP9Wi5h4qAgVJ-43" value="" style="endArrow=none;html=1;rounded=0;startSize=14;endSize=14;sourcePerimeterSpacing=8;targetPerimeterSpacing=8;curved=1;" parent="1" edge="1">
          <mxGeometry width="50" height="50" relative="1" as="geometry">
            <mxPoint x="49" y="289" as="sourcePoint" />
            <mxPoint x="99" y="239" as="targetPoint" />
          </mxGeometry>
        </mxCell>
        <mxCell id="o0m45_NpP9Wi5h4qAgVJ-45" value="" style="group" parent="1" vertex="1" connectable="0">
          <mxGeometry x="38" y="363" width="60" height="43" as="geometry" />
        </mxCell>
        <mxCell id="o0m45_NpP9Wi5h4qAgVJ-46" value="guidedTours" style="text;strokeColor=none;fillColor=none;html=1;align=center;verticalAlign=middle;whiteSpace=wrap;rounded=0;container=0;" parent="o0m45_NpP9Wi5h4qAgVJ-45" vertex="1">
          <mxGeometry y="13" width="60" height="30" as="geometry" />
        </mxCell>
        <mxCell id="o0m45_NpP9Wi5h4qAgVJ-47" value="" style="ellipse;whiteSpace=wrap;html=1;aspect=fixed;container=0;" parent="o0m45_NpP9Wi5h4qAgVJ-45" vertex="1">
          <mxGeometry x="21" width="18" height="18" as="geometry" />
        </mxCell>
        <mxCell id="o0m45_NpP9Wi5h4qAgVJ-64" value="" style="group" parent="1" vertex="1" connectable="0">
          <mxGeometry x="-16" y="186" width="60" height="43" as="geometry" />
        </mxCell>
        <mxCell id="o0m45_NpP9Wi5h4qAgVJ-65" value="purchaseModality" style="text;strokeColor=none;fillColor=none;html=1;align=center;verticalAlign=middle;whiteSpace=wrap;rounded=0;container=0;" parent="o0m45_NpP9Wi5h4qAgVJ-64" vertex="1">
          <mxGeometry y="13" width="60" height="30" as="geometry" />
        </mxCell>
        <mxCell id="o0m45_NpP9Wi5h4qAgVJ-66" value="" style="ellipse;whiteSpace=wrap;html=1;aspect=fixed;container=0;" parent="o0m45_NpP9Wi5h4qAgVJ-64" vertex="1">
          <mxGeometry x="21" width="18" height="18" as="geometry" />
        </mxCell>
        <mxCell id="o0m45_NpP9Wi5h4qAgVJ-76" value="" style="endArrow=none;html=1;rounded=0;startSize=14;endSize=14;sourcePerimeterSpacing=8;targetPerimeterSpacing=8;curved=1;exitX=1;exitY=0.5;exitDx=0;exitDy=0;entryX=0;entryY=0.5;entryDx=0;entryDy=0;" parent="1" source="o0m45_NpP9Wi5h4qAgVJ-66" target="o0m45_NpP9Wi5h4qAgVJ-3" edge="1">
          <mxGeometry width="50" height="50" relative="1" as="geometry">
            <mxPoint x="26" y="197" as="sourcePoint" />
            <mxPoint x="76" y="147" as="targetPoint" />
          </mxGeometry>
        </mxCell>
        <mxCell id="o0m45_NpP9Wi5h4qAgVJ-83" value="" style="group" parent="1" vertex="1" connectable="0">
          <mxGeometry x="69" y="84.67" width="60" height="43" as="geometry" />
        </mxCell>
        <mxCell id="o0m45_NpP9Wi5h4qAgVJ-84" value="date" style="text;strokeColor=none;fillColor=none;html=1;align=center;verticalAlign=middle;whiteSpace=wrap;rounded=0;container=0;" parent="o0m45_NpP9Wi5h4qAgVJ-83" vertex="1">
          <mxGeometry y="13" width="60" height="30" as="geometry" />
        </mxCell>
        <mxCell id="o0m45_NpP9Wi5h4qAgVJ-85" value="" style="ellipse;whiteSpace=wrap;html=1;aspect=fixed;container=0;" parent="o0m45_NpP9Wi5h4qAgVJ-83" vertex="1">
          <mxGeometry x="21" width="18" height="18" as="geometry" />
        </mxCell>
        <mxCell id="o0m45_NpP9Wi5h4qAgVJ-87" value="" style="group" parent="1" vertex="1" connectable="0">
          <mxGeometry x="199" y="62" width="60" height="43" as="geometry" />
        </mxCell>
        <mxCell id="o0m45_NpP9Wi5h4qAgVJ-88" value="timeSlot" style="text;strokeColor=none;fillColor=none;html=1;align=center;verticalAlign=middle;whiteSpace=wrap;rounded=0;container=0;" parent="o0m45_NpP9Wi5h4qAgVJ-87" vertex="1">
          <mxGeometry y="13" width="60" height="30" as="geometry" />
        </mxCell>
        <mxCell id="o0m45_NpP9Wi5h4qAgVJ-89" value="" style="ellipse;whiteSpace=wrap;html=1;aspect=fixed;container=0;" parent="o0m45_NpP9Wi5h4qAgVJ-87" vertex="1">
          <mxGeometry x="21" width="18" height="18" as="geometry" />
        </mxCell>
        <mxCell id="o0m45_NpP9Wi5h4qAgVJ-90" value="" style="group" parent="1" vertex="1" connectable="0">
          <mxGeometry x="-42" y="84.67" width="60" height="43" as="geometry" />
        </mxCell>
        <mxCell id="o0m45_NpP9Wi5h4qAgVJ-91" value="workingDay" style="text;strokeColor=none;fillColor=none;html=1;align=center;verticalAlign=middle;whiteSpace=wrap;rounded=0;container=0;" parent="o0m45_NpP9Wi5h4qAgVJ-90" vertex="1">
          <mxGeometry y="13" width="60" height="30" as="geometry" />
        </mxCell>
        <mxCell id="o0m45_NpP9Wi5h4qAgVJ-92" value="" style="ellipse;whiteSpace=wrap;html=1;aspect=fixed;container=0;" parent="o0m45_NpP9Wi5h4qAgVJ-90" vertex="1">
          <mxGeometry x="21" width="18" height="18" as="geometry" />
        </mxCell>
        <mxCell id="o0m45_NpP9Wi5h4qAgVJ-93" value="" style="group" parent="1" vertex="1" connectable="0">
          <mxGeometry x="68" y="24.67" width="60" height="43" as="geometry" />
        </mxCell>
        <mxCell id="o0m45_NpP9Wi5h4qAgVJ-94" value="month" style="text;strokeColor=none;fillColor=none;html=1;align=center;verticalAlign=middle;whiteSpace=wrap;rounded=0;container=0;" parent="o0m45_NpP9Wi5h4qAgVJ-93" vertex="1">
          <mxGeometry y="13" width="60" height="30" as="geometry" />
        </mxCell>
        <mxCell id="o0m45_NpP9Wi5h4qAgVJ-95" value="" style="ellipse;whiteSpace=wrap;html=1;aspect=fixed;container=0;" parent="o0m45_NpP9Wi5h4qAgVJ-93" vertex="1">
          <mxGeometry x="21" width="18" height="18" as="geometry" />
        </mxCell>
        <mxCell id="o0m45_NpP9Wi5h4qAgVJ-96" value="" style="group" parent="1" vertex="1" connectable="0">
          <mxGeometry x="8" y="-13.33" width="60" height="43" as="geometry" />
        </mxCell>
        <mxCell id="o0m45_NpP9Wi5h4qAgVJ-97" value="quarter" style="text;strokeColor=none;fillColor=none;html=1;align=center;verticalAlign=middle;whiteSpace=wrap;rounded=0;container=0;" parent="o0m45_NpP9Wi5h4qAgVJ-96" vertex="1">
          <mxGeometry y="13" width="60" height="30" as="geometry" />
        </mxCell>
        <mxCell id="o0m45_NpP9Wi5h4qAgVJ-98" value="" style="ellipse;whiteSpace=wrap;html=1;aspect=fixed;container=0;" parent="o0m45_NpP9Wi5h4qAgVJ-96" vertex="1">
          <mxGeometry x="21" width="18" height="18" as="geometry" />
        </mxCell>
        <mxCell id="o0m45_NpP9Wi5h4qAgVJ-99" value="" style="group" parent="1" vertex="1" connectable="0">
          <mxGeometry x="128" y="-13.33" width="60" height="43" as="geometry" />
        </mxCell>
        <mxCell id="o0m45_NpP9Wi5h4qAgVJ-100" value="bimester" style="text;strokeColor=none;fillColor=none;html=1;align=center;verticalAlign=middle;whiteSpace=wrap;rounded=0;container=0;" parent="o0m45_NpP9Wi5h4qAgVJ-99" vertex="1">
          <mxGeometry y="13" width="60" height="30" as="geometry" />
        </mxCell>
        <mxCell id="o0m45_NpP9Wi5h4qAgVJ-101" value="" style="ellipse;whiteSpace=wrap;html=1;aspect=fixed;container=0;" parent="o0m45_NpP9Wi5h4qAgVJ-99" vertex="1">
          <mxGeometry x="21" width="18" height="18" as="geometry" />
        </mxCell>
        <mxCell id="o0m45_NpP9Wi5h4qAgVJ-102" value="" style="group" parent="1" vertex="1" connectable="0">
          <mxGeometry x="68" y="-60.33" width="60" height="43" as="geometry" />
        </mxCell>
        <mxCell id="o0m45_NpP9Wi5h4qAgVJ-103" value="semester" style="text;strokeColor=none;fillColor=none;html=1;align=center;verticalAlign=middle;whiteSpace=wrap;rounded=0;container=0;" parent="o0m45_NpP9Wi5h4qAgVJ-102" vertex="1">
          <mxGeometry y="13" width="60" height="30" as="geometry" />
        </mxCell>
        <mxCell id="o0m45_NpP9Wi5h4qAgVJ-104" value="" style="ellipse;whiteSpace=wrap;html=1;aspect=fixed;container=0;" parent="o0m45_NpP9Wi5h4qAgVJ-102" vertex="1">
          <mxGeometry x="21" width="18" height="18" as="geometry" />
        </mxCell>
        <mxCell id="o0m45_NpP9Wi5h4qAgVJ-105" value="" style="group" parent="1" vertex="1" connectable="0">
          <mxGeometry x="68" y="-117.33" width="60" height="43" as="geometry" />
        </mxCell>
        <mxCell id="o0m45_NpP9Wi5h4qAgVJ-106" value="year" style="text;strokeColor=none;fillColor=none;html=1;align=center;verticalAlign=middle;whiteSpace=wrap;rounded=0;container=0;" parent="o0m45_NpP9Wi5h4qAgVJ-105" vertex="1">
          <mxGeometry y="13" width="60" height="30" as="geometry" />
        </mxCell>
        <mxCell id="o0m45_NpP9Wi5h4qAgVJ-107" value="" style="ellipse;whiteSpace=wrap;html=1;aspect=fixed;container=0;" parent="o0m45_NpP9Wi5h4qAgVJ-105" vertex="1">
          <mxGeometry x="21" width="18" height="18" as="geometry" />
        </mxCell>
        <mxCell id="o0m45_NpP9Wi5h4qAgVJ-109" value="" style="endArrow=none;html=1;rounded=0;startSize=14;endSize=14;sourcePerimeterSpacing=8;targetPerimeterSpacing=8;curved=1;exitX=0.25;exitY=0;exitDx=0;exitDy=0;entryX=0.5;entryY=1;entryDx=0;entryDy=0;" parent="1" source="o0m45_NpP9Wi5h4qAgVJ-2" target="o0m45_NpP9Wi5h4qAgVJ-85" edge="1">
          <mxGeometry width="50" height="50" relative="1" as="geometry">
            <mxPoint x="161.63603896938957" y="77.63603896939003" as="sourcePoint" />
            <mxPoint x="129" y="43" as="targetPoint" />
          </mxGeometry>
        </mxCell>
        <mxCell id="o0m45_NpP9Wi5h4qAgVJ-110" value="" style="endArrow=none;html=1;rounded=0;startSize=14;endSize=14;sourcePerimeterSpacing=8;targetPerimeterSpacing=8;curved=1;exitX=0.75;exitY=0;exitDx=0;exitDy=0;entryX=0;entryY=1;entryDx=0;entryDy=0;" parent="1" source="o0m45_NpP9Wi5h4qAgVJ-2" target="o0m45_NpP9Wi5h4qAgVJ-89" edge="1">
          <mxGeometry width="50" height="50" relative="1" as="geometry">
            <mxPoint x="176.99999999994998" y="84.00000000000011" as="sourcePoint" />
            <mxPoint x="220" y="22" as="targetPoint" />
          </mxGeometry>
        </mxCell>
        <mxCell id="o0m45_NpP9Wi5h4qAgVJ-111" value="" style="endArrow=none;html=1;rounded=0;startSize=14;endSize=14;sourcePerimeterSpacing=8;targetPerimeterSpacing=8;curved=1;exitX=0;exitY=0.5;exitDx=0;exitDy=0;entryX=1;entryY=0.5;entryDx=0;entryDy=0;" parent="1" source="o0m45_NpP9Wi5h4qAgVJ-85" target="o0m45_NpP9Wi5h4qAgVJ-92" edge="1">
          <mxGeometry width="50" height="50" relative="1" as="geometry">
            <mxPoint x="132" y="86.67" as="sourcePoint" />
            <mxPoint x="182" y="36.67" as="targetPoint" />
          </mxGeometry>
        </mxCell>
        <mxCell id="o0m45_NpP9Wi5h4qAgVJ-112" value="" style="endArrow=none;html=1;rounded=0;startSize=14;endSize=14;sourcePerimeterSpacing=8;targetPerimeterSpacing=8;curved=1;exitX=0.5;exitY=0;exitDx=0;exitDy=0;entryX=0.5;entryY=1;entryDx=0;entryDy=0;" parent="1" source="o0m45_NpP9Wi5h4qAgVJ-85" target="o0m45_NpP9Wi5h4qAgVJ-95" edge="1">
          <mxGeometry width="50" height="50" relative="1" as="geometry">
            <mxPoint x="140" y="104.67" as="sourcePoint" />
            <mxPoint x="190" y="54.67" as="targetPoint" />
          </mxGeometry>
        </mxCell>
        <mxCell id="o0m45_NpP9Wi5h4qAgVJ-113" value="" style="endArrow=none;html=1;rounded=0;startSize=14;endSize=14;sourcePerimeterSpacing=8;targetPerimeterSpacing=8;curved=1;exitX=0;exitY=0.5;exitDx=0;exitDy=0;entryX=1;entryY=1;entryDx=0;entryDy=0;" parent="1" source="o0m45_NpP9Wi5h4qAgVJ-95" target="o0m45_NpP9Wi5h4qAgVJ-98" edge="1">
          <mxGeometry width="50" height="50" relative="1" as="geometry">
            <mxPoint x="65" y="33.67" as="sourcePoint" />
            <mxPoint x="115" y="-16.33" as="targetPoint" />
          </mxGeometry>
        </mxCell>
        <mxCell id="o0m45_NpP9Wi5h4qAgVJ-114" value="" style="endArrow=none;html=1;rounded=0;startSize=14;endSize=14;sourcePerimeterSpacing=8;targetPerimeterSpacing=8;curved=1;exitX=1;exitY=0.5;exitDx=0;exitDy=0;entryX=0;entryY=1;entryDx=0;entryDy=0;" parent="1" source="o0m45_NpP9Wi5h4qAgVJ-95" target="o0m45_NpP9Wi5h4qAgVJ-101" edge="1">
          <mxGeometry width="50" height="50" relative="1" as="geometry">
            <mxPoint x="108" y="28.67" as="sourcePoint" />
            <mxPoint x="158" y="-21.33" as="targetPoint" />
          </mxGeometry>
        </mxCell>
        <mxCell id="o0m45_NpP9Wi5h4qAgVJ-115" value="" style="endArrow=classic;html=1;rounded=0;startSize=7;endSize=7;sourcePerimeterSpacing=8;targetPerimeterSpacing=8;curved=1;exitX=1;exitY=0;exitDx=0;exitDy=0;entryX=0;entryY=0.5;entryDx=0;entryDy=0;" parent="1" source="o0m45_NpP9Wi5h4qAgVJ-98" target="o0m45_NpP9Wi5h4qAgVJ-104" edge="1">
          <mxGeometry width="50" height="50" relative="1" as="geometry">
            <mxPoint x="42" y="-20.33" as="sourcePoint" />
            <mxPoint x="93" y="-59.33" as="targetPoint" />
          </mxGeometry>
        </mxCell>
        <mxCell id="o0m45_NpP9Wi5h4qAgVJ-117" value="" style="endArrow=classic;html=1;rounded=0;startSize=7;endSize=7;sourcePerimeterSpacing=8;targetPerimeterSpacing=8;curved=1;exitX=0;exitY=0;exitDx=0;exitDy=0;entryX=1;entryY=0.5;entryDx=0;entryDy=0;" parent="1" source="o0m45_NpP9Wi5h4qAgVJ-101" target="o0m45_NpP9Wi5h4qAgVJ-104" edge="1">
          <mxGeometry width="50" height="50" relative="1" as="geometry">
            <mxPoint x="181.81603896930454" y="-23.69396103069535" as="sourcePoint" />
            <mxPoint x="129.18" y="-54.33" as="targetPoint" />
          </mxGeometry>
        </mxCell>
        <mxCell id="o0m45_NpP9Wi5h4qAgVJ-118" value="" style="endArrow=none;html=1;rounded=0;startSize=14;endSize=14;sourcePerimeterSpacing=8;targetPerimeterSpacing=8;curved=1;exitX=0.5;exitY=0;exitDx=0;exitDy=0;entryX=0.5;entryY=1;entryDx=0;entryDy=0;" parent="1" source="o0m45_NpP9Wi5h4qAgVJ-104" target="o0m45_NpP9Wi5h4qAgVJ-107" edge="1">
          <mxGeometry width="50" height="50" relative="1" as="geometry">
            <mxPoint x="32" y="-51.33" as="sourcePoint" />
            <mxPoint x="82" y="-101.33" as="targetPoint" />
          </mxGeometry>
        </mxCell>
        <mxCell id="o0m45_NpP9Wi5h4qAgVJ-119" value="" style="endArrow=none;html=1;rounded=0;startSize=14;endSize=14;sourcePerimeterSpacing=8;targetPerimeterSpacing=8;curved=1;entryX=0.5;entryY=1;entryDx=0;entryDy=0;" parent="1" target="o0m45_NpP9Wi5h4qAgVJ-36" edge="1">
          <mxGeometry width="50" height="50" relative="1" as="geometry">
            <mxPoint x="122" y="367" as="sourcePoint" />
            <mxPoint x="167" y="325" as="targetPoint" />
          </mxGeometry>
        </mxCell>
        <mxCell id="o0m45_NpP9Wi5h4qAgVJ-120" value="" style="group" parent="1" vertex="1" connectable="0">
          <mxGeometry x="13.55" y="285" width="60" height="43" as="geometry" />
        </mxCell>
        <mxCell id="o0m45_NpP9Wi5h4qAgVJ-121" value="ticketType" style="text;strokeColor=none;fillColor=none;html=1;align=center;verticalAlign=middle;whiteSpace=wrap;rounded=0;container=0;" parent="o0m45_NpP9Wi5h4qAgVJ-120" vertex="1">
          <mxGeometry y="13" width="60" height="30" as="geometry" />
        </mxCell>
        <mxCell id="o0m45_NpP9Wi5h4qAgVJ-122" value="" style="ellipse;whiteSpace=wrap;html=1;aspect=fixed;container=0;" parent="o0m45_NpP9Wi5h4qAgVJ-120" vertex="1">
          <mxGeometry x="21" width="18" height="18" as="geometry" />
        </mxCell>
        <mxCell id="o0m45_NpP9Wi5h4qAgVJ-123" value="" style="group" parent="1" vertex="1" connectable="0">
          <mxGeometry x="92" y="365" width="60" height="43" as="geometry" />
        </mxCell>
        <mxCell id="o0m45_NpP9Wi5h4qAgVJ-124" value="Wi-Fi" style="text;strokeColor=none;fillColor=none;html=1;align=center;verticalAlign=middle;whiteSpace=wrap;rounded=0;container=0;" parent="o0m45_NpP9Wi5h4qAgVJ-123" vertex="1">
          <mxGeometry y="13" width="60" height="30" as="geometry" />
        </mxCell>
        <mxCell id="o0m45_NpP9Wi5h4qAgVJ-125" value="" style="ellipse;whiteSpace=wrap;html=1;aspect=fixed;container=0;" parent="o0m45_NpP9Wi5h4qAgVJ-123" vertex="1">
          <mxGeometry x="21" width="18" height="18" as="geometry" />
        </mxCell>
        <mxCell id="o0m45_NpP9Wi5h4qAgVJ-126" value="..." style="text;html=1;strokeColor=none;fillColor=none;align=center;verticalAlign=middle;whiteSpace=wrap;rounded=0;" parent="1" vertex="1">
          <mxGeometry x="138" y="355" width="60" height="30" as="geometry" />
        </mxCell>
        <mxCell id="o0m45_NpP9Wi5h4qAgVJ-127" value="" style="endArrow=none;html=1;rounded=0;startSize=14;endSize=14;sourcePerimeterSpacing=8;targetPerimeterSpacing=8;curved=1;entryX=1;entryY=1;entryDx=0;entryDy=0;" parent="1" target="o0m45_NpP9Wi5h4qAgVJ-36" edge="1">
          <mxGeometry width="50" height="50" relative="1" as="geometry">
            <mxPoint x="213" y="366" as="sourcePoint" />
            <mxPoint x="224" y="336" as="targetPoint" />
          </mxGeometry>
        </mxCell>
        <mxCell id="o0m45_NpP9Wi5h4qAgVJ-128" value="" style="group" parent="1" vertex="1" connectable="0">
          <mxGeometry x="183" y="365" width="60" height="43" as="geometry" />
        </mxCell>
        <mxCell id="o0m45_NpP9Wi5h4qAgVJ-129" value="wardrobe" style="text;strokeColor=none;fillColor=none;html=1;align=center;verticalAlign=middle;whiteSpace=wrap;rounded=0;container=0;" parent="o0m45_NpP9Wi5h4qAgVJ-128" vertex="1">
          <mxGeometry y="13" width="60" height="30" as="geometry" />
        </mxCell>
        <mxCell id="o0m45_NpP9Wi5h4qAgVJ-130" value="" style="ellipse;whiteSpace=wrap;html=1;aspect=fixed;container=0;" parent="o0m45_NpP9Wi5h4qAgVJ-128" vertex="1">
          <mxGeometry x="21" width="18" height="18" as="geometry" />
        </mxCell>
        <mxCell id="o0m45_NpP9Wi5h4qAgVJ-135" value="" style="shape=stencil(7VzJkhU3EPyauSq0L2eM/8MRBjNhDATg7e9d5Qk1razu1IwvvnCDN8qnrSpr1XtIr768++nTm4fov3z9/PHXN38+/vz13UP64SHGxw/v3nx+/Cr/ekivH9Krtx8/v/nl88ffP/z89P9PP+lI/ddvH//Qb/jrCedd6gqK/u/5QW//fvDj0/D3jx+W4cUvw5PzlQ4fy/DsemTDa1uG183wVpfhw/nOhvd1eAiuFDZ+wPjs/LgfH5xfVx+qa2Q9wcWwjh+uZDY+5WV8jJv15HU9cvqJ7De4Gtfx1UUiC8E1+P4+d3QzfqzrT955Mj66UNbxx45uxud1/SnNG7kZD+KTsqtEmBPeV6ou0/EdxneXyHrylMZDWbzL/n58cTmt46NLRF0qnk/OLhB5ayg/ubhBvr8bZW90/cM12G93NRH5EYVcDzQPqsAhTnKagOK5hCYXAgLokvJknBNgMB0uzq+XUAJXMjnzjoDK9lDnJR2ASGkxNORFAVRyz6Gj4hQ5NzbDcDUjoDPNF7sBe8gukxmUG2FJhXKjKH+MCGCypIauIIDdtKr/qj6l0lOKB/ucAEw0lADKi2aQ70tmD2zTzUhrcZUDcNPFRcKRQhrN3HQjpBEPG3mSpUFUVIxMMgBPxFusDNidwu1sihc6HcjFCWDAPXgX2AyyxdXtEuajM2QD4LY5FdfXU9qQt9i+BtZHPmF7aK40BCR2cX3++Wx/iMYJYBiD1dimRZYqAiqz0B7pXvbgiT4IAKRVAJ0DgO7l4pgTk4X5wOoK2xISEEBfRUMNClFR8SrA7xEV9UQ0BFABUKlBEQDauDGF5Rogrti66Rqn83EHgHuohYq3AMC5rd0FtoeEe2jcdVDna52hcV4SABBZ49wqAHDgmuggE408/3wABvX4BFBXQI9zkXcAcB36wVR3gL5ya+e8pIB1031QG5cNVY5I3XoFrLw0Mo3zFABxauU0kzFSGp0rkF3SwYXP3fSYKvXMYx0bFRVAQgCzD/k4xBOA0b0C1hmC95yYMuYXdAp+cxASC6C/SIMEUPmugZgEkLm4loAAFsUpC6xcKbLBnO9LwGZJkEMS+X4Zk4kGec6VCTYdaJpKABGIiYeKCgDaaLslRcNkld8DAuIM4J+7JO4lKmC9uNZ3+pBW8W51C1hd45ZpbGlFo0Xqh6rwrUotZpQlrVQf1j3UrbRCMFrrTh8aOBtid9kMZXoKJ++ksmMtGL3WMOX3DgDUVz2X1iMwPHlYLHGrzjx4iRJAMPFuJsxqNGRXv9Z4iZ2dUp/O/Dk+ZgBhUlgSjwc0CjNZBJaxE0A3SQF2SuJqFzMDzfFF1GkBMObT4NacEssqCwCzOY26AsWYrMJDlGLEWwDMsuu9rgok0tqItMqKUeP8NJPXAFkxkECYd38HGAUBLE9RDkfhRAIs3K1GlmqioiELALeyZhpbyvdB+keYLxEVle+rwHxtznkNqFNdDsARYl8DOvJSk3sgmxZrEFZeEoPCxFv+7MGgpJl3vgaYXIvYOBYPtIK81A7f9xrQ0IVrhcaWEoWhFeU004NL3sxA9tDTZNLTHlhWTcO2gYBCLq5Xc0ppfsU1oGNiQwCMjIfHNJyKBhFv8SHzqkDtSKZcA6JxHQbVh5GwXCoCz3hJ/GAoQNRKI3ABVNDpwvdQzAyJEpkAIG8nxMP8pWErFmMmea8BFb1K4XOWOtHw2VhRRgICAPYWq5fZHtrUr1OSjGncMDqdO007CACqg5knySQIw9xjpk6iAMAj09Qf24Mp4KXBNa5jjJ8qdU7GwIJc4iVpzUoAIMwi4B0A4oc4ZtnzDgBV11gp82lAv16cFm74krCuHmnCVQEra2grAt8DJPpCp+UBTRmsmw5ld0rAGt8Kmbc3vcpSyNQTuASwqosuaT3WkGhtagxMuAqAKtBAf0kAninQQLMbInV0x0B/SQF80xDSaMl6AxgIKBt9MJumRGYKcnJxO42LCOgv20OZ+aDnnlLhBsXeQ6Eu3MVNF5oYvJClQpPGF9Ja5s08Vx+4z3epcdROXwFYIuSCNRLNAV/wUuLezDA9VEcLxy1gtaKqcfyUwDnZA6DNZr+k3BFA+2b+AwBi0dC4NzNM61unmz5l3k82i3mJV4i40zko78ZC8w5227FxF0v8VNOhtnFPIJ2TtvwNPlkqNEtmVSh12jSnPhnUtD03vB29jZxoTndc1eVZKUg9V2j0arQ6Jb4xpqQ8JxrTqlY2oV9DdtW2EzZDNU1SlRYuBYAtTJ3WmgQQTIaJOkAm76AJHnasBYMaTWQzfcioDxqNshky0rHGu0ynEyqQJnjYKUVMSTXevSBBPoTgLdEM0/AmYZSnsb9LVGSbztmkQiICWF66F6TKdnRyPTedU+kpXSSMKvXJLlJSXDQukl6VRqMXabVKiUzutQ8EMN9YU4MmS8YajEU2ocO7ZdqBoelNqJdFahVrRW5tvD1UU7TAGoP2FtQjXjipKKN7TTNDDosXFKrHzEbl+qCpcthDpl1VyqSQ9Eq0lFpMralGKt6lYbJFALSwYwpscm6ZzVCw9irnxlS0ZCQyPTd2rMm0Vg5aJBSbCQ6WnBtjPi1OmdIR3UPAZIvWmogFKubNhpZ6NiW8bmZgZUiTO9E98LolOiedqui3Br6zJ8Dq+A0Nit40q71WbJKq3PnWzktT/mL6kIspf0Wah9NGStCHxBsfi1kS7/YUAKoob3G1PU+Nv3XKGXlpU1BQgKkEbVo8mrGiTONyxjcTrVMFyhlJoHsurRnNrrapbNojAJB5L6ZdUuWyZNzQPngDhm0lC9Rk2S5DcUw3HXrYDscz399b+ibge0vfFeD/aOnjPa64hyMAvgWYpthN2y1uOu5UDrJeY8tkkAXujT4ntc1qnddSbVuicOWmmxmywMLGtDPseKF34nv6hjCb6LXSUlC2UVPiCpRMXBZoXKa99+B8D5rCEkAyEQdrnckJy4ribNBjNU8/xWFqbIZoXLLGmcy+CSqcBMzrW/HfacNduChRU9EwvnTeuJUe+yM2DzT1eYxJ9NE3QfYBzubVUce2EwVsHhGZJdFHvs28Yu00GNWHUOaUWI9HKmh386AxTTK+Q+bPMvS5GIgG93STjfx4PJDsy9pIrag+qoM+Rl4K0sw7AHh1Sh8GQuRXaEO2Pj00zydZ4VIfNw4EMKqMDclYWIOpqD7QNE20zChePAFt1Je+eGTKe8T1GauJwJmN04eyZtN0DxGTlRqyM0DAJFnhHdzRo/uz6RwOpsej8OKrPomGi+PvmvTRtQGwl1Ohonu/eUOtD8fNK206g8kyay8x20M2iY1IUyfaPjEQwBpQg2neFF5iQVDwWPJTo0h0epg2d0+j3W7ecw6eY57m7GwRyXpMYiYXSjEma6IuJvN8XvibEQnpQmw8YzCj/KnTyDti2KAdZETRIvrDqVDbGUyHWqKtI8G0wAXqXwT0C+PYjIeMqUgICzECln8jf3ting9H3oHkkYaipyThsfwWGnV2PDp42utDvz+bbgvmBXt078Z8t3szHI6/0dDFY0tNon6XxypDoLpuGiACpZ6L4ayqYhbjabXA44MITw2eqYR5mrf0KMbyAf12KJvx100eHQieMzp6CU7DqUrFgWunIgbOCW8h8fg2xtPk6Yt/rmszXP7x7ZfB3j6+f//0w2Lnv+MviclHT79Cll7/Aw==);lineShape=1;" parent="1" vertex="1">
          <mxGeometry x="20.91187926393593" y="396.67020048995755" width="228.32330098021595" height="34.765445066325995" as="geometry" />
        </mxCell>
        <mxCell id="o0m45_NpP9Wi5h4qAgVJ-136" value="number and list already known&lt;br&gt;+&lt;br&gt;number &amp;lt;= 10&lt;br&gt;=&lt;br&gt;configuration pattern" style="text;html=1;strokeColor=none;fillColor=none;align=center;verticalAlign=middle;whiteSpace=wrap;rounded=0;" parent="1" vertex="1">
          <mxGeometry x="13.55" y="424" width="228.91" height="86" as="geometry" />
        </mxCell>
      </root>
    </mxGraphModel>
  </diagram>
</mxfile>
